<mxfile host="app.diagrams.net" modified="2024-05-27T08:05:59.748Z" agent="Mozilla/5.0 (Macintosh; Intel Mac OS X 10_15_7) AppleWebKit/537.36 (KHTML, like Gecko) Chrome/125.0.0.0 Safari/537.36" etag="C3g2VyKbTJU9qgn2k6ix" version="24.4.8" type="github">
  <diagram name="Page-1" id="jxr_gWP45gktSqrr-w9r">
    <mxGraphModel dx="1306" dy="716" grid="1" gridSize="10" guides="1" tooltips="1" connect="1" arrows="1" fold="1" page="1" pageScale="1" pageWidth="850" pageHeight="1100" math="0" shadow="0">
      <root>
        <mxCell id="0" />
        <mxCell id="1" parent="0" />
        <mxCell id="9MyiHjONz64NixXEZmVl-2" value="" style="html=1;shape=mxgraph.basic.isocube;isoAngle=15;" vertex="1" parent="1">
          <mxGeometry x="40" y="190" width="320" height="360" as="geometry" />
        </mxCell>
        <mxCell id="9MyiHjONz64NixXEZmVl-5" value="" style="verticalLabelPosition=bottom;verticalAlign=top;html=1;shape=mxgraph.basic.star;rotation=-45;" vertex="1" parent="1">
          <mxGeometry x="197" y="309" width="20" height="25" as="geometry" />
        </mxCell>
        <mxCell id="9MyiHjONz64NixXEZmVl-6" value="" style="verticalLabelPosition=bottom;verticalAlign=top;html=1;shape=mxgraph.basic.star;rotation=-45;" vertex="1" parent="1">
          <mxGeometry x="240" y="289" width="20" height="25" as="geometry" />
        </mxCell>
        <mxCell id="9MyiHjONz64NixXEZmVl-7" value="" style="verticalLabelPosition=bottom;verticalAlign=top;html=1;shape=mxgraph.basic.star;rotation=-45;" vertex="1" parent="1">
          <mxGeometry x="280" y="270" width="20" height="25" as="geometry" />
        </mxCell>
        <mxCell id="9MyiHjONz64NixXEZmVl-8" value="" style="verticalLabelPosition=bottom;verticalAlign=top;html=1;shape=mxgraph.basic.star;rotation=-45;" vertex="1" parent="1">
          <mxGeometry x="312" y="255" width="20" height="25" as="geometry" />
        </mxCell>
        <mxCell id="9MyiHjONz64NixXEZmVl-11" value="" style="verticalLabelPosition=bottom;verticalAlign=top;html=1;shape=mxgraph.basic.star;rotation=-45;" vertex="1" parent="1">
          <mxGeometry x="150" y="289" width="20" height="25" as="geometry" />
        </mxCell>
        <mxCell id="9MyiHjONz64NixXEZmVl-12" value="" style="verticalLabelPosition=bottom;verticalAlign=top;html=1;shape=mxgraph.basic.star;rotation=-45;" vertex="1" parent="1">
          <mxGeometry x="193" y="269" width="20" height="25" as="geometry" />
        </mxCell>
        <mxCell id="9MyiHjONz64NixXEZmVl-13" value="" style="verticalLabelPosition=bottom;verticalAlign=top;html=1;shape=mxgraph.basic.star;rotation=-45;" vertex="1" parent="1">
          <mxGeometry x="233" y="250" width="20" height="25" as="geometry" />
        </mxCell>
        <mxCell id="9MyiHjONz64NixXEZmVl-14" value="" style="verticalLabelPosition=bottom;verticalAlign=top;html=1;shape=mxgraph.basic.star;rotation=-45;" vertex="1" parent="1">
          <mxGeometry x="265" y="235" width="20" height="25" as="geometry" />
        </mxCell>
        <mxCell id="9MyiHjONz64NixXEZmVl-16" value="" style="verticalLabelPosition=bottom;verticalAlign=top;html=1;shape=mxgraph.basic.star;rotation=-45;" vertex="1" parent="1">
          <mxGeometry x="105" y="270" width="20" height="25" as="geometry" />
        </mxCell>
        <mxCell id="9MyiHjONz64NixXEZmVl-17" value="" style="verticalLabelPosition=bottom;verticalAlign=top;html=1;shape=mxgraph.basic.star;rotation=-45;" vertex="1" parent="1">
          <mxGeometry x="148" y="250" width="20" height="25" as="geometry" />
        </mxCell>
        <mxCell id="9MyiHjONz64NixXEZmVl-18" value="" style="verticalLabelPosition=bottom;verticalAlign=top;html=1;shape=mxgraph.basic.star;rotation=-45;" vertex="1" parent="1">
          <mxGeometry x="188" y="231" width="20" height="25" as="geometry" />
        </mxCell>
        <mxCell id="9MyiHjONz64NixXEZmVl-19" value="" style="verticalLabelPosition=bottom;verticalAlign=top;html=1;shape=mxgraph.basic.star;rotation=-45;" vertex="1" parent="1">
          <mxGeometry x="220" y="216" width="20" height="25" as="geometry" />
        </mxCell>
        <mxCell id="9MyiHjONz64NixXEZmVl-21" value="" style="verticalLabelPosition=bottom;verticalAlign=top;html=1;shape=mxgraph.basic.star;rotation=-45;" vertex="1" parent="1">
          <mxGeometry x="70" y="245" width="20" height="25" as="geometry" />
        </mxCell>
        <mxCell id="9MyiHjONz64NixXEZmVl-22" value="" style="verticalLabelPosition=bottom;verticalAlign=top;html=1;shape=mxgraph.basic.star;rotation=-45;" vertex="1" parent="1">
          <mxGeometry x="113" y="225" width="20" height="25" as="geometry" />
        </mxCell>
        <mxCell id="9MyiHjONz64NixXEZmVl-23" value="" style="verticalLabelPosition=bottom;verticalAlign=top;html=1;shape=mxgraph.basic.star;rotation=-45;" vertex="1" parent="1">
          <mxGeometry x="153" y="206" width="20" height="25" as="geometry" />
        </mxCell>
        <mxCell id="9MyiHjONz64NixXEZmVl-24" value="" style="verticalLabelPosition=bottom;verticalAlign=top;html=1;shape=mxgraph.basic.star;rotation=-45;" vertex="1" parent="1">
          <mxGeometry x="185" y="191" width="20" height="25" as="geometry" />
        </mxCell>
        <mxCell id="9MyiHjONz64NixXEZmVl-30" value="" style="ellipse;whiteSpace=wrap;html=1;aspect=fixed;rotation=-45;fillColor=#000000;" vertex="1" parent="1">
          <mxGeometry x="90" y="265" width="15" height="15" as="geometry" />
        </mxCell>
        <mxCell id="9MyiHjONz64NixXEZmVl-31" value="" style="ellipse;whiteSpace=wrap;html=1;aspect=fixed;rotation=-45;fillColor=#000000;" vertex="1" parent="1">
          <mxGeometry x="115.5" y="254" width="15" height="15" as="geometry" />
        </mxCell>
        <mxCell id="9MyiHjONz64NixXEZmVl-32" value="" style="ellipse;whiteSpace=wrap;html=1;aspect=fixed;rotation=-45;fillColor=#000000;" vertex="1" parent="1">
          <mxGeometry x="148" y="236" width="15" height="15" as="geometry" />
        </mxCell>
        <mxCell id="9MyiHjONz64NixXEZmVl-33" value="" style="ellipse;whiteSpace=wrap;html=1;aspect=fixed;rotation=-45;fillColor=#000000;" vertex="1" parent="1">
          <mxGeometry x="185" y="216" width="15" height="15" as="geometry" />
        </mxCell>
        <mxCell id="9MyiHjONz64NixXEZmVl-34" value="" style="ellipse;whiteSpace=wrap;html=1;aspect=fixed;rotation=-45;fillColor=#000000;" vertex="1" parent="1">
          <mxGeometry x="213" y="201" width="15" height="15" as="geometry" />
        </mxCell>
        <mxCell id="9MyiHjONz64NixXEZmVl-36" value="" style="ellipse;whiteSpace=wrap;html=1;aspect=fixed;rotation=-45;fillColor=#000000;" vertex="1" parent="1">
          <mxGeometry x="130.5" y="289" width="15" height="15" as="geometry" />
        </mxCell>
        <mxCell id="9MyiHjONz64NixXEZmVl-37" value="" style="ellipse;whiteSpace=wrap;html=1;aspect=fixed;rotation=-45;fillColor=#000000;" vertex="1" parent="1">
          <mxGeometry x="158" y="274" width="15" height="15" as="geometry" />
        </mxCell>
        <mxCell id="9MyiHjONz64NixXEZmVl-38" value="" style="ellipse;whiteSpace=wrap;html=1;aspect=fixed;rotation=-45;fillColor=#000000;" vertex="1" parent="1">
          <mxGeometry x="188" y="259" width="15" height="15" as="geometry" />
        </mxCell>
        <mxCell id="9MyiHjONz64NixXEZmVl-39" value="" style="ellipse;whiteSpace=wrap;html=1;aspect=fixed;rotation=-45;fillColor=#000000;" vertex="1" parent="1">
          <mxGeometry x="222.5" y="244" width="15" height="15" as="geometry" />
        </mxCell>
        <mxCell id="9MyiHjONz64NixXEZmVl-40" value="" style="ellipse;whiteSpace=wrap;html=1;aspect=fixed;rotation=-45;fillColor=#000000;" vertex="1" parent="1">
          <mxGeometry x="260" y="225" width="15" height="15" as="geometry" />
        </mxCell>
        <mxCell id="9MyiHjONz64NixXEZmVl-44" value="" style="ellipse;whiteSpace=wrap;html=1;aspect=fixed;rotation=-45;fillColor=#000000;" vertex="1" parent="1">
          <mxGeometry x="168" y="314" width="15" height="15" as="geometry" />
        </mxCell>
        <mxCell id="9MyiHjONz64NixXEZmVl-45" value="" style="ellipse;whiteSpace=wrap;html=1;aspect=fixed;rotation=-45;fillColor=#000000;" vertex="1" parent="1">
          <mxGeometry x="195.5" y="299" width="15" height="15" as="geometry" />
        </mxCell>
        <mxCell id="9MyiHjONz64NixXEZmVl-46" value="" style="ellipse;whiteSpace=wrap;html=1;aspect=fixed;rotation=-45;fillColor=#000000;" vertex="1" parent="1">
          <mxGeometry x="225.5" y="284" width="15" height="15" as="geometry" />
        </mxCell>
        <mxCell id="9MyiHjONz64NixXEZmVl-47" value="" style="ellipse;whiteSpace=wrap;html=1;aspect=fixed;rotation=-45;fillColor=#000000;" vertex="1" parent="1">
          <mxGeometry x="260" y="269" width="15" height="15" as="geometry" />
        </mxCell>
        <mxCell id="9MyiHjONz64NixXEZmVl-48" value="" style="ellipse;whiteSpace=wrap;html=1;aspect=fixed;rotation=-45;fillColor=#000000;" vertex="1" parent="1">
          <mxGeometry x="297.5" y="250" width="15" height="15" as="geometry" />
        </mxCell>
      </root>
    </mxGraphModel>
  </diagram>
</mxfile>
